M48
; DRILL file {KiCad (5.1.0)-1} date 5/8/2019 5:57:06 PM
; FORMAT={-:-/ absolute / inch / decimal}
; #@! TF.CreationDate,2019-05-08T17:57:06+02:00
; #@! TF.GenerationSoftware,Kicad,Pcbnew,(5.1.0)-1
; #@! TF.FileFunction,Plated,1,2,PTH
FMAT,2
INCH
T1C0.0157
T2C0.0315
T3C0.0354
T4C0.0394
T5C0.0433
T6C0.0472
T7C0.0520
T8C0.0669
%
G90
G05
T1
X1.425Y-0.475
X1.45Y-1.3
X2.475Y-1.775
X2.6Y-1.65
X3.15Y-1.725
X3.45Y-1.025
X3.9Y-1.525
X4.175Y-1.525
T2
X1.79Y-1.8516
X1.79Y-1.95
X1.6Y-0.575
X1.6787Y-0.575
X1.55Y-0.95
X1.55Y-1.25
X3.64Y-1.85
X3.64Y-2.15
X5.2Y-0.575
X5.2787Y-0.575
X4.5Y-0.075
X4.5Y-0.175
X4.5Y-0.275
X4.5Y-0.375
X4.8Y-0.075
X4.8Y-0.175
X4.8Y-0.275
X4.8Y-0.375
X5.55Y-0.275
X5.55Y-0.3734
X4.44Y-1.85
X4.44Y-1.95
X4.44Y-2.05
X4.44Y-2.15
X4.74Y-1.85
X4.74Y-1.95
X4.74Y-2.05
X4.74Y-2.15
X5.1Y-0.075
X5.1Y-0.175
X5.1Y-0.275
X5.1Y-0.375
X5.4Y-0.075
X5.4Y-0.175
X5.4Y-0.275
X5.4Y-0.375
X4.35Y-0.275
X4.35Y-0.3734
X5.55Y-0.85
X5.55Y-1.15
X4.29Y-1.8516
X4.29Y-1.95
X3.9Y-0.075
X3.9Y-0.175
X3.9Y-0.275
X3.9Y-0.375
X4.2Y-0.075
X4.2Y-0.175
X4.2Y-0.275
X4.2Y-0.375
X1.15Y-1.725
X1.15Y-2.025
X3.75Y-0.075
X3.75Y-0.375
X5.8113Y-1.65
X5.89Y-1.65
X1.34Y-1.85
X1.34Y-1.95
X1.34Y-2.05
X1.34Y-2.15
X1.64Y-1.85
X1.64Y-1.95
X1.64Y-2.05
X1.64Y-2.15
X4.0Y-0.575
X4.0787Y-0.575
X2.8Y-0.575
X2.8787Y-0.575
X4.8Y-0.85
X4.8Y-1.15
X2.39Y-1.85
X2.39Y-2.15
X3.15Y-0.275
X3.15Y-0.3734
X5.25Y-0.85
X5.25Y-1.15
X3.3Y-0.075
X3.3Y-0.175
X3.3Y-0.275
X3.3Y-0.375
X3.6Y-0.075
X3.6Y-0.175
X3.6Y-0.275
X3.6Y-0.375
X1.2516Y-1.3
X1.35Y-1.3
X1.15Y-0.35
X1.15Y-0.65
X5.69Y-1.85
X5.69Y-1.95
X5.69Y-2.05
X5.69Y-2.15
X5.99Y-1.85
X5.99Y-1.95
X5.99Y-2.05
X5.99Y-2.15
X1.5Y-0.075
X1.5Y-0.175
X1.5Y-0.275
X1.5Y-0.375
X1.8Y-0.075
X1.8Y-0.175
X1.8Y-0.275
X1.8Y-0.375
X1.15Y-2.25
X1.15Y-2.55
X2.0613Y-1.65
X2.14Y-1.65
X4.89Y-1.85
X4.89Y-2.15
X4.95Y-0.85
X4.95Y-1.15
X5.54Y-1.8516
X5.54Y-1.95
X1.94Y-1.85
X1.94Y-1.95
X1.94Y-2.05
X1.94Y-2.15
X2.24Y-1.85
X2.24Y-1.95
X2.24Y-2.05
X2.24Y-2.15
X4.5613Y-1.65
X4.64Y-1.65
X5.7Y-0.075
X5.7Y-0.175
X5.7Y-0.275
X5.7Y-0.375
X6.0Y-0.075
X6.0Y-0.175
X6.0Y-0.275
X6.0Y-0.375
X6.14Y-1.85
X6.14Y-2.15
X5.09Y-1.85
X5.09Y-1.95
X5.09Y-2.05
X5.09Y-2.15
X5.39Y-1.85
X5.39Y-1.95
X5.39Y-2.05
X5.39Y-2.15
X1.95Y-0.275
X1.95Y-0.3734
X5.4Y-0.85
X5.4Y-1.15
X3.84Y-1.85
X3.84Y-1.95
X3.84Y-2.05
X3.84Y-2.15
X4.14Y-1.85
X4.14Y-1.95
X4.14Y-2.05
X4.14Y-2.15
X2.7Y-0.075
X2.7Y-0.175
X2.7Y-0.275
X2.7Y-0.375
X3.0Y-0.075
X3.0Y-0.175
X3.0Y-0.275
X3.0Y-0.375
X5.1Y-0.85
X5.1Y-1.15
X2.59Y-1.85
X2.59Y-1.95
X2.59Y-2.05
X2.59Y-2.15
X2.89Y-1.85
X2.89Y-1.95
X2.89Y-2.05
X2.89Y-2.15
X1.35Y-0.075
X1.35Y-0.375
X5.7Y-0.85
X5.7Y-1.15
X3.3113Y-1.65
X3.39Y-1.65
X2.1Y-0.075
X2.1Y-0.175
X2.1Y-0.275
X2.1Y-0.375
X2.4Y-0.075
X2.4Y-0.175
X2.4Y-0.275
X2.4Y-0.375
X1.15Y0.175
X1.15Y-0.125
X3.19Y-1.85
X3.19Y-1.95
X3.19Y-2.05
X3.19Y-2.15
X3.49Y-1.85
X3.49Y-1.95
X3.49Y-2.05
X3.49Y-2.15
X2.55Y-0.075
X2.55Y-0.375
X3.04Y-1.8516
X3.04Y-1.95
X4.95Y-0.075
X4.95Y-0.375
T3
X1.25Y-0.95
X1.35Y-0.95
T4
X5.0Y-1.5
X5.0Y-1.6
X5.1Y-1.5
X5.1Y-1.6
X5.2Y-1.5
X5.2Y-1.6
X5.3Y-1.5
X5.3Y-1.6
X5.4Y-1.5
X5.4Y-1.6
X5.5Y-1.5
X5.5Y-1.6
X5.6Y-1.5
X5.6Y-1.6
T5
X1.85Y-0.8
X1.85Y-1.1
X1.85Y-1.2
X1.85Y-1.4
X1.95Y-0.8
X1.95Y-1.1
X1.95Y-1.2
X1.95Y-1.4
X2.05Y-0.8
X2.05Y-1.1
X2.05Y-1.2
X2.05Y-1.4
X2.15Y-0.8
X2.15Y-1.1
X2.15Y-1.2
X2.15Y-1.4
X2.25Y-0.8
X2.25Y-1.1
X2.25Y-1.2
X2.25Y-1.4
X2.35Y-0.8
X2.35Y-0.9
X2.35Y-1.0
X2.35Y-1.1
X2.35Y-1.2
X2.35Y-1.3
X2.35Y-1.4
X2.45Y-0.8
X2.45Y-1.1
X2.45Y-1.2
X2.45Y-1.4
X2.55Y-0.8
X2.55Y-1.1
X2.55Y-1.2
X2.55Y-1.4
X2.65Y-0.8
X2.65Y-1.1
X2.65Y-1.2
X2.65Y-1.4
X2.75Y-0.8
X2.75Y-1.4
X2.85Y-0.8
X2.85Y-1.4
X2.95Y-0.8
X2.95Y-1.4
X3.05Y-0.8
X3.05Y-1.4
X3.15Y-0.8
X3.15Y-1.4
X3.25Y-0.8
X3.25Y-1.1
X3.25Y-1.2
X3.25Y-1.4
X3.35Y-0.8
X3.35Y-1.1
X3.35Y-1.2
X3.35Y-1.4
X3.45Y-0.8
X3.45Y-1.1
X3.45Y-1.2
X3.45Y-1.4
X3.5Y-0.9181
X3.55Y-0.8
X3.55Y-1.1
X3.55Y-1.2
X3.55Y-1.4
X3.6Y-0.9181
X3.65Y-0.8
X3.65Y-1.3
X3.65Y-1.4
X3.7Y-0.9181
X3.75Y-0.8
X3.75Y-1.3
X3.75Y-1.4
X3.8Y-0.9181
X3.85Y-0.8
X3.85Y-1.3
X3.85Y-1.4
X3.9Y-0.9181
X3.95Y-0.8
X3.95Y-1.4
X4.05Y-0.8
X4.05Y-1.3
X4.05Y-1.4
X4.15Y-0.8
X4.15Y-1.4
T6
X1.84Y-2.45
X5.5Y0.225
X3.09Y-2.45
X0.85Y-0.525
X0.85Y-1.8
X0.85Y-2.4
X4.3Y0.225
X3.1Y0.225
X1.9Y0.225
X5.59Y-2.45
X4.34Y-2.45
X0.85Y0.05
T7
X0.8Y-1.0031
X0.8Y-1.2
T8
X4.24Y-2.35
X4.24Y-2.55
X4.44Y-2.35
X4.44Y-2.55
X0.75Y0.15
X0.75Y-0.05
X0.95Y0.15
X0.95Y-0.05
X1.74Y-2.35
X1.74Y-2.55
X1.94Y-2.35
X1.94Y-2.55
X5.4Y0.325
X5.4Y0.125
X5.6Y0.325
X5.6Y0.125
X2.99Y-2.35
X2.99Y-2.55
X3.19Y-2.35
X3.19Y-2.55
X0.75Y-0.425
X0.75Y-0.625
X0.95Y-0.425
X0.95Y-0.625
X0.75Y-1.7
X0.75Y-1.9
X0.95Y-1.7
X0.95Y-1.9
X0.75Y-2.3
X0.75Y-2.5
X0.95Y-2.3
X0.95Y-2.5
X4.2Y0.325
X4.2Y0.125
X4.4Y0.325
X4.4Y0.125
X3.0Y0.325
X3.0Y0.125
X3.2Y0.325
X3.2Y0.125
X1.8Y0.325
X1.8Y0.125
X2.0Y0.325
X2.0Y0.125
X5.49Y-2.35
X5.49Y-2.55
X5.69Y-2.35
X5.69Y-2.55
T0
M30
